<?xml version="1.0" encoding="utf-8"?>
<!-- Generator: Adobe Illustrator 16.0.4, SVG Export Plug-In . SVG Version: 6.00 Build 0)  -->
<!DOCTYPE svg PUBLIC "-//W3C//DTD SVG 1.1//EN" "http://www.w3.org/Graphics/SVG/1.1/DTD/svg11.dtd">
<svg version="1.1" id="Layer_1" xmlns="http://www.w3.org/2000/svg" xmlns:xlink="http://www.w3.org/1999/xlink" x="0px" y="0px" viewBox="0 0 821.819 161.782" style="enable-background:new 0 0 821.819 161.782;"
	 xml:space="preserve">
<g>
	<path style="fill:none;stroke:#D35991;stroke-width:2;stroke-miterlimit:10;" d="M156.651,9.759
		c38.164-9.432,69.496-5.368,79.365,13.175c14.546,27.337-23.07,75.805-84.03,108.258c-60.96,32.445-122.183,36.588-136.735,9.246
		c-9.244-17.352,2.541-43.217,27.969-68.093"/>
	<g>
		<defs>
			<rect id="SVGID_1_" x="41.972" y="-0.844" width="158.697" height="158.698"/>
		</defs>
		<clipPath id="SVGID_2_">
			<use xlink:href="#SVGID_1_"  style="overflow:visible;"/>
		</clipPath>
		<g style="clip-path:url(#SVGID_2_);">
			<defs>
				<rect id="SVGID_3_" x="-59.581" y="-98.842" width="354.696" height="354.696"/>
			</defs>
			<clipPath id="SVGID_4_">
				<use xlink:href="#SVGID_3_"  style="overflow:visible;"/>
			</clipPath>
			<path style="clip-path:url(#SVGID_4_);fill:#3595BE;" d="M53.251,78.504c0,26.942,15.655,50.229,38.365,61.26L59.144,50.802
				C55.366,59.268,53.251,68.635,53.251,78.504"/>
			<path style="clip-path:url(#SVGID_4_);fill:#3595BE;" d="M167.27,75.07c0-8.415-3.022-14.24-5.608-18.772
				c-3.451-5.61-6.689-10.355-6.689-15.966c0-6.256,4.744-12.08,11.431-12.08c0.304,0,0.589,0.037,0.883,0.055
				c-12.11-11.095-28.247-17.871-45.965-17.871c-23.782,0-44.702,12.203-56.876,30.68c1.601,0.052,3.105,0.084,4.384,0.084
				c7.116,0,18.14-0.867,18.14-0.867c3.668-0.215,4.101,5.176,0.436,5.61c0,0-3.689,0.431-7.789,0.647l24.785,73.731l14.898-44.674
				L108.695,46.59c-3.668-0.217-7.139-0.647-7.139-0.647c-3.669-0.218-3.24-5.825,0.429-5.61c0,0,11.239,0.867,17.929,0.867
				c7.119,0,18.144-0.867,18.144-0.867c3.669-0.215,4.102,5.176,0.433,5.61c0,0-3.691,0.431-7.789,0.647l24.601,73.17l6.79-22.686
				C165.029,87.659,167.27,80.895,167.27,75.07"/>
			<path style="clip-path:url(#SVGID_4_);fill:#3595BE;" d="M122.515,84.458l-20.425,59.346c6.099,1.795,12.547,2.773,19.229,2.773
				c7.926,0,15.53-1.369,22.604-3.859c-0.181-0.289-0.351-0.598-0.489-0.936L122.515,84.458z"/>
			<path style="clip-path:url(#SVGID_4_);fill:#3595BE;" d="M181.05,45.848c0.293,2.169,0.458,4.494,0.458,7
				c0,6.904-1.293,14.67-5.176,24.38l-20.791,60.113c20.236-11.799,33.847-33.725,33.847-58.836
				C189.388,66.669,186.364,55.544,181.05,45.848"/>
			<path style="clip-path:url(#SVGID_4_);fill:#3595BE;" d="M121.32-0.844c-43.752,0-79.348,35.595-79.348,79.348
				c0,43.754,35.595,79.35,79.348,79.35c43.753,0,79.352-35.596,79.352-79.35C200.671,34.751,165.073-0.844,121.32-0.844
				 M121.32,154.217c-41.747,0-75.71-33.967-75.71-75.713c0-41.747,33.963-75.709,75.71-75.709
				c41.745,0,75.711,33.962,75.711,75.709C197.031,120.25,163.065,154.217,121.32,154.217"/>
		</g>
	</g>
	<path style="fill:none;stroke:#FFFFFF;stroke-width:2;stroke-miterlimit:10;" d="M43.22,72.345"/>
	<path style="fill:#D35991;" d="M7.215,89.459c0,1.992-1.616,3.609-3.607,3.609C1.619,93.069,0,91.452,0,89.459
		c0-1.986,1.619-3.605,3.607-3.605C5.599,85.854,7.215,87.473,7.215,89.459z"/>
	<path style="fill:#D35991;" d="M29.262,150.202c0,3.871-3.142,7.006-7.008,7.006c-3.872,0-7.003-3.135-7.003-7.006
		c0-3.863,3.132-7.008,7.003-7.008C26.121,143.194,29.262,146.338,29.262,150.202z"/>
	<path style="fill:#D35991;" d="M36.265,45.115c0,3.87-3.132,7.011-7.002,7.011c-3.868,0-7.008-3.141-7.008-7.011
		c0-3.863,3.14-7.004,7.008-7.004C33.132,38.111,36.265,41.252,36.265,45.115z"/>
	<path style="fill:#D35991;" d="M223.859,134.53c0,2.42-1.955,4.369-4.36,4.369c-2.419,0-4.364-1.949-4.364-4.369
		c0-2.404,1.945-4.359,4.364-4.359C221.904,130.17,223.859,132.125,223.859,134.53z"/>
	<line style="fill:none;stroke:#D35991;stroke-width:2;stroke-miterlimit:10;" x1="219.496" y1="21.611" x2="212.103" y2="29"/>
	<line style="fill:none;stroke:#D35991;stroke-width:2;stroke-miterlimit:10;" x1="212.103" y1="21.611" x2="219.496" y2="29"/>
	<line style="fill:none;stroke:#D35991;stroke-width:2;stroke-miterlimit:10;" x1="42.84" y1="127.147" x2="35.448" y2="134.534"/>
	<line style="fill:none;stroke:#D35991;stroke-width:2;stroke-miterlimit:10;" x1="35.448" y1="127.147" x2="42.84" y2="134.534"/>
	<path style="fill:none;stroke:#D35991;stroke-width:2;stroke-miterlimit:10;" d="M236.016,22.934
		c14.546,27.337-23.07,75.805-84.03,108.258c-60.96,32.445-122.183,36.588-136.735,9.246"/>
	<g>
		<path style="fill:#D35991;" d="M248.621,4.158l14.663,33.05l15.32-35.451l14.663,35.451l15.576-33.05h9.228l-25.168,52.584
			l-14.48-35.034l-15.102,35.065L239.392,4.158H248.621z"/>
		<path style="fill:#D35991;" d="M313.518,38.894c0-4.578,1.866-8.473,5.599-11.685c3.731-3.21,8.278-4.816,13.642-4.816
			c5.389,0,9.961,1.616,13.717,4.849c3.708,3.233,5.562,7.204,5.562,11.913c0,4.751-1.867,8.733-5.601,11.944
			c-3.756,3.189-8.364,4.784-13.826,4.784c-5.414,0-9.948-1.627-13.605-4.882C315.348,47.79,313.518,43.755,313.518,38.894z
			 M322.045,39.023c0,3.169,0.964,5.675,2.891,7.519c1.978,1.866,4.585,2.8,7.822,2.8c3.263,0,5.869-0.923,7.823-2.767
			c1.953-1.845,2.929-4.308,2.929-7.389s-0.976-5.544-2.929-7.389c-1.978-1.865-4.585-2.799-7.823-2.799
			c-3.188,0-5.771,0.934-7.746,2.799C323.033,33.665,322.045,36.073,322.045,39.023z"/>
		<path style="fill:#D35991;" d="M360.861,24.639h8.34v2.832c1.532-1.41,2.892-2.376,4.077-2.897
			c1.211-0.541,2.645-0.812,4.301-0.812c2.2,0,4.498,0.629,6.896,1.888l-3.818,6.704c-1.581-0.997-3.126-1.497-4.635-1.497
			c-4.547,0-6.82,3.017-6.82,9.048V56.34h-8.34V24.639z"/>
		<path style="fill:#D35991;" d="M415.874,0h8.378v54.972h-8.378v-3.319c-3.287,2.821-7.007,4.23-11.157,4.23
			c-4.944,0-9.047-1.583-12.31-4.751c-3.237-3.233-4.856-7.27-4.856-12.108c0-4.729,1.619-8.679,4.856-11.847
			c3.213-3.189,7.253-4.784,12.122-4.784c4.227,0,8.009,1.519,11.345,4.556V0z M396.078,39.023c0,3.038,0.926,5.512,2.78,7.421
			c1.903,1.932,4.301,2.897,7.19,2.897c3.09,0,5.586-0.934,7.489-2.8c1.903-1.931,2.854-4.383,2.854-7.355s-0.951-5.425-2.854-7.355
			c-1.903-1.888-4.375-2.832-7.413-2.832c-2.868,0-5.267,0.955-7.193,2.864C397.028,33.795,396.078,36.182,396.078,39.023z"/>
		<path style="fill:#D35991;" d="M478.674,7.403v8.968c-4.993-3.667-10.159-5.501-15.496-5.501c-5.883,0-10.839,1.855-14.866,5.566
			c-4.054,3.688-6.08,8.201-6.08,13.539c0,5.272,2.026,9.721,6.08,13.344c4.054,3.624,9.021,5.436,14.902,5.436
			c3.04,0,5.623-0.434,7.749-1.301c1.186-0.435,2.415-1.021,3.688-1.759c1.273-0.736,2.613-1.627,4.023-2.669v9.162
			c-4.944,2.463-10.135,3.694-15.57,3.694c-8.182,0-15.162-2.506-20.946-7.518c-5.759-5.056-8.638-11.153-8.638-18.292
			c0-6.4,2.41-12.107,7.229-17.119c5.931-6.141,13.605-9.212,23.021-9.212C468.912,3.742,473.878,4.964,478.674,7.403z"/>
		<path style="fill:#D35991;" d="M513.077,23.271h8.379v31.701h-8.379v-3.319c-3.436,2.821-7.13,4.23-11.085,4.23
			c-4.992,0-9.119-1.583-12.382-4.751c-3.237-3.233-4.856-7.27-4.856-12.108c0-4.752,1.619-8.711,4.856-11.88
			c3.237-3.167,7.291-4.751,12.161-4.751c4.2,0,7.97,1.519,11.306,4.556V23.271z M493.281,39.023c0,3.038,0.926,5.512,2.78,7.421
			c1.901,1.932,4.3,2.897,7.192,2.897c3.088,0,5.584-0.934,7.487-2.8c1.903-1.931,2.854-4.383,2.854-7.355s-0.951-5.425-2.854-7.355
			c-1.903-1.888-4.373-2.832-7.413-2.832c-2.868,0-5.265,0.955-7.193,2.864C494.231,33.795,493.281,36.182,493.281,39.023z"/>
		<path style="fill:#D35991;" d="M529.707,24.639h8.341v2.93c1.606-1.476,2.978-2.474,4.115-2.995
			c1.21-0.541,2.73-0.812,4.559-0.812c4.078,0,7.305,1.562,9.677,4.687c2.619-3.125,6.166-4.687,10.64-4.687
			c8.131,0,12.196,4.328,12.196,12.985V56.34h-8.378V38.732c0-3.038-0.421-5.187-1.262-6.444c-0.864-1.28-2.285-1.921-4.263-1.921
			c-2.298,0-3.973,0.76-5.023,2.278c-1.05,1.52-1.575,3.961-1.575,7.323V56.34h-8.378V38.83c0-5.642-1.854-8.463-5.561-8.463
			c-2.348,0-4.06,0.771-5.135,2.312c-1.075,1.54-1.612,3.971-1.612,7.29V56.34h-8.341V24.639z"/>
		<path style="fill:#D35991;" d="M596.585,72.222h-8.341V23.271h8.341v3.45c3.287-2.886,7.019-4.328,11.195-4.328
			c4.968,0,9.059,1.606,12.271,4.816c3.263,3.189,4.895,7.215,4.895,12.075c0,4.752-1.619,8.712-4.857,11.88
			c-3.213,3.146-7.265,4.719-12.159,4.719c-4.227,0-8.007-1.485-11.344-4.458V72.222z M616.418,39.316
			c0-3.038-0.939-5.511-2.816-7.42c-1.905-1.932-4.301-2.897-7.192-2.897c-3.065,0-5.55,0.934-7.453,2.799
			c-1.902,1.867-2.853,4.318-2.853,7.356c0,2.973,0.95,5.425,2.853,7.355c1.879,1.888,4.352,2.832,7.415,2.832
			c2.892,0,5.277-0.955,7.156-2.864C615.455,44.567,616.418,42.181,616.418,39.316z"/>
		<path style="fill:#D35991;" d="M651.156,13.215V56.34h-8.638V13.215h-13.16V6.087h34.921v7.128H651.156z"/>
		<path style="fill:#D35991;" d="M662.388,38.894c0-4.578,1.866-8.473,5.598-11.685c3.732-3.21,8.279-4.816,13.642-4.816
			c5.388,0,9.96,1.616,13.718,4.849c3.706,3.233,5.561,7.204,5.561,11.913c0,4.751-1.866,8.733-5.599,11.944
			c-3.756,3.189-8.366,4.784-13.826,4.784c-5.414,0-9.95-1.627-13.607-4.882C664.216,47.79,662.388,43.755,662.388,38.894z
			 M670.916,39.023c0,3.169,0.963,5.675,2.891,7.519c1.978,1.866,4.585,2.8,7.821,2.8c3.264,0,5.87-0.923,7.823-2.767
			c1.952-1.845,2.928-4.308,2.928-7.389s-0.976-5.544-2.928-7.389c-1.979-1.865-4.586-2.799-7.823-2.799
			c-3.188,0-5.771,0.934-7.747,2.799C671.903,33.665,670.916,36.073,670.916,39.023z"/>
		<path style="fill:#D35991;" d="M715.033,1.368v33.522l11.753-10.252h11.195L722.299,37.95l16.83,18.39h-10.825l-11.938-13.377
			l-1.334,1.172V56.34h-8.34V1.368H715.033z"/>
		<path style="fill:#D35991;" d="M758.165,50.448l-16.236-25.81h9.674l11.049,18.227l10.306-18.227h9.417L753.606,73.59h-9.527
			L758.165,50.448z"/>
		<path style="fill:#D35991;" d="M783.3,38.894c0-4.578,1.867-8.473,5.599-11.685c3.731-3.21,8.278-4.816,13.642-4.816
			c5.388,0,9.96,1.616,13.718,4.849c3.706,3.233,5.561,7.204,5.561,11.913c0,4.751-1.867,8.733-5.599,11.944
			c-3.756,3.189-8.366,4.784-13.827,4.784c-5.413,0-9.949-1.627-13.606-4.882C785.129,47.79,783.3,43.755,783.3,38.894z
			 M791.828,39.023c0,3.169,0.964,5.675,2.892,7.519c1.977,1.866,4.584,2.8,7.821,2.8c3.263,0,5.87-0.923,7.823-2.767
			c1.951-1.845,2.928-4.308,2.928-7.389s-0.977-5.544-2.928-7.389c-1.979-1.865-4.586-2.799-7.823-2.799
			c-3.188,0-5.771,0.934-7.747,2.799C792.816,33.665,791.828,36.073,791.828,39.023z"/>
	</g>
	<g>
		<path style="fill:#289ECC;" d="M354.424,83.682c0-2.555,1.455-3.836,4.369-3.836h7.689c2.911,0,4.369,1.281,4.369,3.836v6.752
			c0,2.557-1.458,3.834-4.369,3.834h-7.689c-2.914,0-4.369-1.277-4.369-3.834V83.682z M354.424,134.317
			c0-2.557,1.455-3.836,4.369-3.836h7.689c2.911,0,4.369,1.279,4.369,3.836v6.75c0,2.559-1.458,3.836-4.369,3.836h-7.689
			c-2.914,0-4.369-1.277-4.369-3.836V134.317z M354.424,151.194c0-2.555,1.455-3.836,4.369-3.836h7.689
			c2.911,0,4.369,1.281,4.369,3.836v6.752c0,2.559-1.458,3.836-4.369,3.836h-7.689c-2.914,0-4.369-1.277-4.369-3.836V151.194z
			 M370.852,124.19c0,2.559-1.458,3.836-4.369,3.836h-7.515c-3.495,0-4.953-1.535-4.369-4.604c0.583-2.762,2.213-5.113,4.893-7.059
			c2.331-1.738,4.72-2.607,7.166-2.607c2.797,0,4.194,1.279,4.194,3.836V124.19z M373.648,83.682c0-2.555,1.457-3.836,4.37-3.836
			h7.688c2.912,0,4.371,1.281,4.371,3.836v6.752c0,2.557-1.459,3.834-4.371,3.834h-7.688c-2.913,0-4.37-1.277-4.37-3.834V83.682z
			 M373.648,117.438c0-2.555,1.457-3.836,4.37-3.836h7.688c2.912,0,4.371,1.281,4.371,3.836v6.752c0,2.559-1.459,3.836-4.371,3.836
			h-7.688c-2.913,0-4.37-1.277-4.37-3.836V117.438z M373.648,151.194c0-2.555,1.457-3.836,4.37-3.836h7.688
			c2.912,0,4.371,1.281,4.371,3.836v6.752c0,2.559-1.459,3.836-4.371,3.836h-7.688c-2.913,0-4.37-1.277-4.37-3.836V151.194z
			 M392.873,83.682c0-2.555,1.457-3.836,4.371-3.836h7.688c2.911,0,4.371,1.281,4.371,3.836v6.752c0,2.557-1.46,3.834-4.371,3.834
			h-7.688c-2.914,0-4.371-1.277-4.371-3.834V83.682z M392.873,117.438c0-2.555,1.457-3.836,4.371-3.836h7.688
			c2.911,0,4.371,1.281,4.371,3.836v6.752c0,2.559-1.46,3.836-4.371,3.836h-7.688c-2.914,0-4.371-1.277-4.371-3.836V117.438z
			 M392.873,151.194c0-2.555,1.457-3.836,4.371-3.836h7.688c2.911,0,4.371,1.281,4.371,3.836v6.752c0,2.559-1.46,3.836-4.371,3.836
			h-7.688c-2.914,0-4.371-1.277-4.371-3.836V151.194z M416.466,94.268c-2.913,0-4.369-1.277-4.369-3.834v-6.598
			c0-3.07,1.749-4.348,5.244-3.836c3.146,0.512,5.767,1.867,7.863,4.064c2.098,2.201,3.146,4.373,3.146,6.521
			c0,2.455-1.459,3.682-4.369,3.682H416.466z M412.097,100.561c0-2.557,1.456-3.836,4.369-3.836h7.689
			c2.911,0,4.369,1.279,4.369,3.836v6.75c0,2.559-1.458,3.836-4.369,3.836h-7.689c-2.913,0-4.369-1.277-4.369-3.836V100.561z
			 M417.341,127.872c-3.495,0.514-5.244-0.768-5.244-3.836v-6.598c0-2.555,1.456-3.836,4.369-3.836h7.516
			c3.495,0,4.95,1.535,4.369,4.604C427.185,123.627,423.514,126.85,417.341,127.872z M412.097,151.194
			c0-2.555,1.456-3.836,4.369-3.836h7.689c2.911,0,4.369,1.281,4.369,3.836v6.752c0,2.559-1.458,3.836-4.369,3.836h-7.689
			c-2.913,0-4.369-1.277-4.369-3.836V151.194z"/>
		<path style="fill:#289ECC;" d="M441.457,100.561c0-2.557,1.456-3.836,4.369-3.836h7.689c2.911,0,4.369,1.279,4.369,3.836v6.75
			c0,2.559-1.458,3.836-4.369,3.836h-7.689c-2.913,0-4.369-1.277-4.369-3.836V100.561z M441.457,117.438
			c0-2.555,1.456-3.836,4.369-3.836h7.689c2.911,0,4.369,1.281,4.369,3.836v6.752c0,2.559-1.458,3.836-4.369,3.836h-7.689
			c-2.913,0-4.369-1.277-4.369-3.836V117.438z M441.457,134.317c0-2.557,1.456-3.836,4.369-3.836h7.689
			c2.911,0,4.369,1.279,4.369,3.836v6.75c0,2.559-1.458,3.836-4.369,3.836h-7.689c-2.913,0-4.369-1.277-4.369-3.836V134.317z
			 M457.884,90.434c0,2.557-1.458,3.834-4.369,3.834H446c-3.495,0-4.953-1.533-4.369-4.602c0.581-2.762,2.213-5.113,4.895-7.059
			C448.854,80.87,451.244,80,453.69,80c2.797,0,4.194,1.279,4.194,3.836V90.434z M453.515,147.358c2.911,0,4.369,1.281,4.369,3.836
			v6.598c0,3.07-1.748,4.348-5.243,3.836c-3.146-0.51-5.827-1.941-8.038-4.295c-1.983-2.045-2.972-4.145-2.972-6.291
			c0-2.455,1.455-3.684,4.369-3.684H453.515z M460.681,83.682c0-2.555,1.456-3.836,4.37-3.836h7.689c2.91,0,4.369,1.281,4.369,3.836
			v6.752c0,2.557-1.459,3.834-4.369,3.834h-7.689c-2.914,0-4.37-1.277-4.37-3.834V83.682z M460.681,151.194
			c0-2.555,1.456-3.836,4.37-3.836h7.689c2.91,0,4.369,1.281,4.369,3.836v6.752c0,2.559-1.459,3.836-4.369,3.836h-7.689
			c-2.914,0-4.37-1.277-4.37-3.836V151.194z M479.905,83.682c0-2.555,1.456-3.836,4.369-3.836h7.689
			c2.913,0,4.369,1.281,4.369,3.836v6.752c0,2.557-1.456,3.834-4.369,3.834h-7.689c-2.913,0-4.369-1.277-4.369-3.834V83.682z
			 M479.905,151.194c0-2.555,1.456-3.836,4.369-3.836h7.689c2.913,0,4.369,1.281,4.369,3.836v6.752c0,2.559-1.456,3.836-4.369,3.836
			h-7.689c-2.913,0-4.369-1.277-4.369-3.836V151.194z M503.5,94.268c-2.914,0-4.37-1.277-4.37-3.834v-6.598
			c0-3.07,1.749-4.348,5.244-3.836c3.146,0.512,5.767,1.867,7.863,4.064c2.098,2.201,3.146,4.373,3.146,6.521
			c0,2.455-1.458,3.682-4.369,3.682H503.5z M499.129,100.561c0-2.557,1.456-3.836,4.37-3.836h7.689c2.91,0,4.369,1.279,4.369,3.836
			v6.75c0,2.559-1.459,3.836-4.369,3.836H503.5c-2.914,0-4.37-1.277-4.37-3.836V100.561z M499.129,117.438
			c0-2.555,1.456-3.836,4.37-3.836h7.689c2.91,0,4.369,1.281,4.369,3.836v6.752c0,2.559-1.459,3.836-4.369,3.836H503.5
			c-2.914,0-4.37-1.277-4.37-3.836V117.438z M499.129,134.317c0-2.557,1.456-3.836,4.37-3.836h7.689c2.91,0,4.369,1.279,4.369,3.836
			v6.75c0,2.559-1.459,3.836-4.369,3.836H503.5c-2.914,0-4.37-1.277-4.37-3.836V134.317z M504.374,161.627
			c-3.495,0.512-5.244-0.766-5.244-3.836v-6.598c0-2.555,1.456-3.836,4.37-3.836h7.515c3.495,0,4.95,1.535,4.369,4.604
			C514.217,157.383,510.546,160.606,504.374,161.627z"/>
		<path style="fill:#289ECC;" d="M541.42,90.393c0,2.584-1.458,3.875-4.369,3.875h-7.515c-3.495,0-4.954-1.551-4.369-4.652
			c0.581-2.791,2.213-5.166,4.894-7.133c2.328-1.758,4.719-2.637,7.165-2.637c2.797,0,4.194,1.293,4.194,3.877V90.393z
			 M544.217,83.682c0-2.555,1.455-3.836,4.369-3.836h7.69c2.91,0,4.368,1.281,4.368,3.836v6.752c0,2.557-1.458,3.834-4.368,3.834
			h-7.69c-2.914,0-4.369-1.277-4.369-3.834V83.682z M544.217,100.561c0-2.557,1.455-3.836,4.369-3.836h7.69
			c2.91,0,4.368,1.279,4.368,3.836v6.75c0,2.559-1.458,3.836-4.368,3.836h-7.69c-2.914,0-4.369-1.277-4.369-3.836V100.561z
			 M544.217,117.438c0-2.555,1.455-3.836,4.369-3.836h7.69c2.91,0,4.368,1.281,4.368,3.836v6.752c0,2.559-1.458,3.836-4.368,3.836
			h-7.69c-2.914,0-4.369-1.277-4.369-3.836V117.438z M544.217,134.317c0-2.557,1.455-3.836,4.369-3.836h7.69
			c2.91,0,4.368,1.279,4.368,3.836v6.75c0,2.559-1.458,3.836-4.368,3.836h-7.69c-2.914,0-4.369-1.277-4.369-3.836V134.317z
			 M544.217,151.194c0-2.555,1.455-3.836,4.369-3.836h7.69c2.91,0,4.368,1.281,4.368,3.836v6.752c0,2.559-1.458,3.836-4.368,3.836
			h-7.69c-2.914,0-4.369-1.277-4.369-3.836V151.194z"/>
		<path style="fill:#289ECC;" d="M573.579,83.682c0-2.555,1.455-3.836,4.369-3.836h7.689c2.911,0,4.369,1.281,4.369,3.836v6.752
			c0,2.557-1.458,3.834-4.369,3.834h-7.689c-2.914,0-4.369-1.277-4.369-3.834V83.682z M573.579,100.561
			c0-2.557,1.455-3.836,4.369-3.836h7.689c2.911,0,4.369,1.279,4.369,3.836v6.75c0,2.559-1.458,3.836-4.369,3.836h-7.689
			c-2.914,0-4.369-1.277-4.369-3.836V100.561z M573.579,117.438c0-2.555,1.455-3.836,4.369-3.836h7.689
			c2.911,0,4.369,1.281,4.369,3.836v6.752c0,2.559-1.458,3.836-4.369,3.836h-7.689c-2.914,0-4.369-1.277-4.369-3.836V117.438z
			 M585.637,130.481c2.911,0,4.369,1.279,4.369,3.836v6.598c0,3.068-1.748,4.348-5.243,3.836c-3.146-0.512-5.828-1.943-8.039-4.297
			c-1.983-2.045-2.972-4.143-2.972-6.291c0-2.455,1.456-3.682,4.37-3.682H585.637z M592.803,134.317
			c0-2.557,1.455-3.836,4.369-3.836h7.689c2.911,0,4.369,1.279,4.369,3.836v6.75c0,2.559-1.458,3.836-4.369,3.836h-7.689
			c-2.914,0-4.369-1.277-4.369-3.836V134.317z M612.027,134.317c0-2.557,1.455-3.836,4.369-3.836h7.689
			c2.912,0,4.369,1.279,4.369,3.836v6.75c0,2.559-1.457,3.836-4.369,3.836h-7.689c-2.914,0-4.369-1.277-4.369-3.836V134.317z
			 M631.251,83.682c0-2.555,1.455-3.836,4.369-3.836h7.689c2.911,0,4.369,1.281,4.369,3.836v6.752c0,2.557-1.458,3.834-4.369,3.834
			h-7.689c-2.914,0-4.369-1.277-4.369-3.834V83.682z M631.251,100.561c0-2.557,1.455-3.836,4.369-3.836h7.689
			c2.911,0,4.369,1.279,4.369,3.836v6.75c0,2.559-1.458,3.836-4.369,3.836h-7.689c-2.914,0-4.369-1.277-4.369-3.836V100.561z
			 M631.251,117.438c0-2.555,1.455-3.836,4.369-3.836h7.689c2.911,0,4.369,1.281,4.369,3.836v6.752c0,2.559-1.458,3.836-4.369,3.836
			h-7.689c-2.914,0-4.369-1.277-4.369-3.836V117.438z M631.251,134.317c0-2.557,1.455-3.836,4.369-3.836h7.689
			c2.911,0,4.369,1.279,4.369,3.836v6.75c0,2.559-1.458,3.836-4.369,3.836h-7.689c-2.914,0-4.369-1.277-4.369-3.836V134.317z
			 M631.251,151.194c0-2.555,1.455-3.836,4.369-3.836h7.689c2.911,0,4.369,1.281,4.369,3.836v6.752c0,2.559-1.458,3.836-4.369,3.836
			h-7.689c-2.914,0-4.369-1.277-4.369-3.836V151.194z"/>
	</g>
</g>
</svg>
